<?xml version="1.0" encoding="utf-8"?>
<!-- Generator: Adobe Illustrator 23.0.3, SVG Export Plug-In . SVG Version: 6.00 Build 0)  -->
<svg version="1.1" id="Слой_2" xmlns="http://www.w3.org/2000/svg" xmlns:xlink="http://www.w3.org/1999/xlink" x="0px" y="0px"
	 viewBox="0 0 111.7 91.8" style="enable-background:new 0 0 111.7 91.8;" xml:space="preserve">
<style type="text/css">
	.st0{fill:none;stroke:#FFB609;stroke-width:1.25;stroke-miterlimit:10;}
</style>
<path class="st0" d="M13.9,62.8c0.6-3.1,1.8-5.3,2.6-6.6c2.2-3.4,4.9-5.2,6.7-6.3c1.2-0.8,2.5-1.6,4.5-2.3c1.2-0.4,3.3-1.1,5.9-0.7
	c0.7,0.1,5.5,0.9,7.7,5c1.8,3.5,0.6,7-0.2,9.3c-1.3,3.8-3.5,5.9-6.3,8.7c-4.8,4.7-9.4,7-12.5,8.5c-5,2.4-7.6,2.7-8.7,2.8
	c-2.1,0.2-4.7,0.4-7.5-1.1c-3.6-2-4.8-5.6-5-6.2c-1.2-3.9,0.2-7.4,1.6-10.5c2.2-5.1,5.4-8.4,6.6-9.6c10.8-11,29.7-28,32.8-31
	c0.2-0.2,0.8-0.7,1.4-1.5c0.6-0.8,2.9-3,3.2-6.6c0.2-3,0.2-2.3,0.2-5.5c0-0.3-0.3-2.7-1.3-1.8c-1,0.9-3.6,4.9-5.3,18.8
	c-0.8,6-0.5,14.5,0.7,24.8"/>
<path class="st0" d="M45.1,36.2c0.3-2.7,0.5-4.9,0.5-6.5c0-0.7,0-1.4-0.4-1.9c-1.1-1.3-3.9-0.7-4.8-0.5c-8.3,2-13,13-14.6,16.8
	c-0.1,0.3-0.7,1.6-0.8,3.4c-0.2,1.6-0.3,2.9,0.6,4.1c0.9,1.3,2.5,1.4,2.8,1.5c2,0.2,3.4-1,3.6-1.2c0.9-0.6,2.2-1.6,3.5-3
	c3.7-3.8,6-8.5,5.8-8.7c-0.1-0.1-0.9,0.8-1.3,2c-0.1,0.4-0.5,1.5,0,2.5c0.1,0.2,0.3,0.6,0.7,0.7c0.5,0.2,1.2-0.2,1.7-0.7
	c3-2.4,4.8-7.5,4.6-7.6c-0.3-0.1-1.1,0.8-1.6,1.8c-0.1,0.3-0.3,0.7-0.4,1.3c-0.9,5.3,0.5,10.5-1.4,26.6c-1.1,9.2-1.1,12.1-3,15.8
	c-1.6,2.9-3.2,4.5-4.1,5.2c-2.5,2-5,2.7-6.6,3.1c-2.1,0.4-5.3,1-7.9-0.7c-2.4-1.6-3-4.5-3.3-5.6c-2-9.1,6.5-19.5,10.9-24.9
	c3.3-4,8.6-9.7,16.4-15.3"/>
<path class="st0" d="M47.3,42.3c-0.1,0.2-0.4,0.6-0.3,1.1c0,0.2,0,0.5,0.2,0.6c0.2,0.1,0.6,0.1,1.9-1.1c1.3-1.1,2.9-2.9,2.8-3.1
	c-0.1-0.1-0.4,0.1-0.6,0.3c-0.3,0.5,0,1.2,0.1,1.3c0.1,0.1,0.2,0.3,0.4,0.4c0.3,0.1,0.5-0.1,0.7-0.3c2.9-2.4,4.4-3.6,4.1-4
	c-0.1-0.1-0.4-0.1-0.6,0c-0.2,0.1-0.3,0.4-0.3,0.4c-0.1,0.5,0.5,1.5,1.1,1.4c0.9-0.1,4.2-0.8,5.9-3.7c0.3-0.5,0.1-1.3-0.4-1.7
	c-0.3-0.3-0.8-0.3-0.9-0.3c-1.7,0-4,2.8-4.2,3.2"/>
<path class="st0" d="M63.9,32.5c-0.4,0.5-0.7,0.9-0.8,1.3c-0.4,0.9-0.4,1.7-0.4,2.6c0,0.5,0.1,0.8,0.3,0.8c0.2,0.1,0.6-0.1,0.7-0.2
	c0.3-0.2,4.8-4.6,4.5-5c-0.1-0.1-0.6,0-0.8,0.3c0,0-0.2,0.2-0.3,0.6c-0.1,0.3-0.3,1.1,0.1,1.6c0.1,0.1,0.3,0.4,0.6,0.4
	c0.2,0,0.3-0.1,0.6-0.4c0.2-0.2,0.4-0.3,0.6-0.5c0.8-0.9,1.9-1.9,3-3c1.8-2,3.4-4.5,4-5.4"/>
<path class="st0" d="M72.1,30.7c0.8-0.5,2.6-1.4,2.7-1.2c0.1,0.1,0.1,0.3,0,0.7c-0.2,0.9-0.2,1.7,0.2,2c0.3,0.2,0.7,0.2,1.1,0.1
	c0.5-0.1,2.5-1.3,3.4-2c0,0,0.7-0.6,1.8-1.6c0.5-0.5,0.8-0.7,1-1.2c0-0.1,0.2-0.7-0.1-1.3c-0.1-0.3-0.3-0.4-0.4-0.5
	c-0.3-0.3-0.6-0.4-0.8-0.4c-0.9-0.3-1.8,0.1-2.1,0.2c-0.8,0.3-1.3,0.9-1.4,1c-1,1.1-1.1,2.5-1.1,2.9"/>
<path class="st0" d="M83.1,24.9c2.5-2.8,5.4-6.2,8.8-10.1c1.4-1.7,3.5-4,5.8-7.4c1-1.5,4.1-6,3.6-6.5c-0.5-0.4-3.4,2.2-4.9,3.7
	c-6.6,6.6-7.6,13.5-12.7,26.2c-2.6,6.5-4,10.2-6.9,15c-2.8,4.7-6.6,11.2-13.9,16.9c-3.5,2.7-12.9,10.2-25.5,9.2
	c-4-0.3-8.1-1.9-8.8-3.5c-2-5.2,20.6-20.4,42.5-28.2c8.3-3,16-6.5,24.6-10c0,0,3.1-0.9,11.6-6.5c0.6-0.4,2.1-1.4,2.9-3.3
	c0.2-0.5,0.8-2.1,0.3-3.2c-1.1-2.2-6.3-1.7-8.7-1.2c-7.4,1.6-11.7,8.5-13.3,11.5"/>
</svg>
